<svg width="162" height="38" viewBox="0 0 162 38" fill="none" xmlns="http://www.w3.org/2000/svg">
<g clip-path="url(#clip0_2100_2140)">
<path d="M40.6128 28.4653V3.70459H55.2475V6.80892H43.6432V14.4219H54.0649V17.5263H43.6432V25.2871H56.0605V28.3914H40.6128V28.4653Z" fill="#E43225"/>
<path d="M71.4343 28.4653L66.4083 21.8871L61.3822 28.4653H57.8344L64.7083 19.6697L57.4648 10.5784H61.4561L66.4083 17.3784L71.4343 10.5784H75.3517L68.4778 19.6697L74.9821 28.4653H71.4343Z" fill="#E43225"/>
<path d="M79.8604 25.8044V38H76.83V19.7436C76.83 15.0871 80.3778 10.1349 85.9212 10.1349C91.5386 10.1349 95.7516 13.6828 95.7516 19.5219C95.7516 25.2131 91.4647 29.1305 86.5864 29.1305C84.2212 29.1305 81.043 28.0957 79.8604 25.8044ZM92.5733 19.5219C92.5733 15.5306 89.9864 13.1654 85.4038 13.3871C83.1864 13.461 79.7865 15.0871 80.0821 20.7784C80.156 22.6262 82.0777 26.1001 86.2908 26.1001C89.9125 26.1001 92.5733 24.0305 92.5733 19.5219Z" fill="#E43225"/>
<path d="M98.3386 28.4653V10.5785H101.369V12.5002C102.847 10.8002 105.139 10.2089 107.578 10.2089V13.4611C107.208 13.3872 103.586 12.9437 101.369 17.6741V28.5393H98.3386V28.4653Z" fill="#E43225"/>
<path d="M108.391 19.5219C108.391 14.348 112.086 10.1349 117.186 10.1349C123.543 10.1349 125.908 14.348 125.908 19.7436V21.2218H111.717C111.939 24.6218 114.969 26.3957 117.778 26.3218C119.847 26.2479 121.252 25.6566 122.73 24.1784L124.725 26.2479C122.878 28.0218 120.512 29.2044 117.63 29.2044C112.234 29.1305 108.391 25.1392 108.391 19.5219ZM116.965 13.1654C114.082 13.1654 111.865 15.6784 111.717 18.4132H122.73C122.73 15.7523 120.808 13.1654 116.965 13.1654Z" fill="#E43225"/>
<path d="M127.46 25.9523L129.678 23.9567C129.604 23.9567 130.786 25.1393 130.934 25.2132C131.451 25.6567 131.969 25.9523 132.634 26.1001C134.556 26.6175 138.03 26.4697 138.325 23.8088C138.473 22.3306 137.365 21.5176 136.108 21.0002C134.482 20.4089 132.708 20.1871 131.082 19.448C129.234 18.635 128.051 17.2306 128.051 15.1611C128.051 9.76545 135.738 8.87849 139.212 11.3915C139.36 11.5393 141.06 13.0915 140.986 13.0915L138.769 14.8654C137.66 13.535 136.625 12.8698 134.26 12.8698C133.078 12.8698 131.451 13.3872 131.156 14.6437C130.712 16.4176 132.708 17.0828 134.038 17.4524C135.812 17.8958 137.734 18.1915 139.286 19.1523C141.43 20.4828 141.947 23.3654 141.134 25.5827C140.247 28.0219 137.586 28.9827 135.221 29.0567C132.412 29.2045 129.973 28.3175 127.978 26.3219C127.83 26.3219 127.46 25.9523 127.46 25.9523Z" fill="#E43225"/>
<path d="M143.056 25.9523L145.273 23.9567C145.199 23.9567 146.382 25.1393 146.53 25.2132C147.047 25.6567 147.564 25.9523 148.23 26.1001C150.151 26.6175 153.625 26.4697 153.921 23.8088C154.069 22.3306 152.96 21.5176 151.704 21.0002C150.077 20.4089 148.304 20.1871 146.678 19.448C144.83 18.635 143.647 17.2306 143.647 15.1611C143.647 9.76545 151.334 8.87849 154.808 11.3915C154.956 11.5393 156.656 13.0915 156.582 13.0915L154.364 14.8654C153.256 13.535 152.221 12.8698 149.856 12.8698C148.673 12.8698 147.047 13.3872 146.751 14.6437C146.308 16.4176 148.304 17.0828 149.634 17.4524C151.408 17.8958 153.33 18.1915 154.882 19.1523C157.025 20.4828 157.543 23.3654 156.73 25.5827C155.843 28.0219 153.182 28.9827 150.817 29.0567C148.008 29.2045 145.569 28.3175 143.573 26.3219C143.425 26.3219 143.056 25.9523 143.056 25.9523Z" fill="#E43225"/>
<path d="M157.469 10.5785V8.65673H156.803V8.28717H158.577V8.65673H157.912V10.5785H157.469Z" fill="#E43225"/>
<path d="M160.795 10.5785V8.80456L160.13 10.5785H159.982L159.316 8.80456V10.5785H158.947V8.28717H159.538L160.13 9.83934L160.721 8.28717H161.312V10.5785H160.795Z" fill="#E43225"/>
<path d="M20.0651 28.4653L17.8477 22.5523H5.8739L3.65652 28.4653H0.478271L10.0869 3.70459H13.5608L23.0956 28.4653H20.0651ZM11.713 7.2524L7.20433 19.5219H16.5912L11.713 7.2524Z" fill="#F7971D"/>
<path d="M25.0912 28.4653V3.70459H28.1955V28.4653H25.0912Z" fill="#F7971D"/>
<path d="M32.8521 28.4653V10.948H35.9564V28.4653H32.8521Z" fill="#F7971D"/>
<path d="M38.9128 5.25671C38.9128 5.1828 38.9128 5.1828 38.9128 5.10889C38.9128 5.03497 38.9128 5.03498 38.9128 4.96106C36.5476 4.88715 34.6259 2.96543 34.552 0.60022C34.4781 0.60022 34.4042 0.60022 34.3303 0.60022C34.2564 0.60022 34.1824 0.60022 34.1085 0.60022C34.0346 2.96543 32.1129 4.88715 29.7477 4.96106C29.7477 5.03498 29.7477 5.03497 29.7477 5.10889C29.7477 5.1828 29.7477 5.1828 29.7477 5.25671C32.1129 5.33062 34.0346 7.25236 34.1085 9.61756C34.1824 9.61756 34.2564 9.61756 34.3303 9.61756C34.4042 9.61756 34.4781 9.61756 34.552 9.61756C34.6259 7.25236 36.5476 5.33062 38.9128 5.25671Z" fill="#F7971D"/>
</g>
<defs>
<clipPath id="clip0_2100_2140">
<rect width="160.834" height="37.3998" fill="white" transform="translate(0.478271 0.60022)"/>
</clipPath>
</defs>
</svg>
