<svg width="60" height="14" viewBox="0 0 60 14" fill="none" xmlns="http://www.w3.org/2000/svg">
<g clip-path="url(#clip0_2_104)">
<g clip-path="url(#clip1_2_104)">
<path d="M59.379 0.210938H58.0197C57.633 0.210938 57.3987 0.445293 57.3987 0.83198V4.85118C57.3987 6.32762 56.6018 7.15959 55.4945 7.15959C54.3286 7.15959 53.6724 6.40379 53.6724 4.94492V0.83198C53.6724 0.445293 53.438 0.210938 53.0514 0.210938H51.6921C51.3054 0.210938 51.071 0.445293 51.071 0.83198V5.13827C51.071 7.87437 52.4889 9.42698 54.6215 9.42698C55.9046 9.42698 56.8889 8.99928 57.592 8.1263L57.7092 8.67118C57.7853 9.02271 58.0197 9.21606 58.3888 9.21606H59.379C59.7656 9.21606 60 8.9817 60 8.59501V0.83198C60 0.445293 59.7715 0.210938 59.379 0.210938Z" fill="#0086FF"/>
<path d="M49.911 6.84906H47.4678C46.6124 6.84906 46.1671 6.40379 46.1671 5.54839V0.83198C46.1671 0.445293 45.9328 0.210938 45.5461 0.210938H44.1517C43.765 0.210938 43.5306 0.445293 43.5306 0.83198V5.87649C43.5306 7.95054 44.7903 9.21606 46.8702 9.21606H49.9168C50.3035 9.21606 50.5379 8.9817 50.5379 8.59501V7.47011C50.532 7.08342 50.2977 6.84906 49.911 6.84906Z" fill="#0086FF"/>
<path d="M10.3635 0.814404C10.3224 0.404281 10.1115 0.210938 9.72484 0.210938H8.69367C8.36557 0.210938 8.13122 0.345692 7.95545 0.638636L5.4537 4.86876L3.12772 0.638636C2.97539 0.345692 2.7176 0.210938 2.3895 0.210938H1.28217C0.895481 0.210937 0.684561 0.41014 0.643549 0.814404L0.00492949 8.57744C-0.0360828 9.00514 0.180696 9.21606 0.58496 9.21606H1.82705C2.21373 9.21606 2.44809 9.02271 2.46567 8.61259L2.73517 4.26529L4.22919 6.96038C4.38152 7.25333 4.63932 7.38808 4.96741 7.38808H5.82281C6.15091 7.38808 6.38527 7.27091 6.56103 6.96038L8.24839 4.07195L8.44174 8.61259C8.45931 9.02271 8.67609 9.21606 9.06278 9.21606H10.4045C10.8146 9.21606 11.0255 9.00514 10.9845 8.57744L10.3635 0.814404Z" fill="#0086FF"/>
<path d="M41.7261 0.21092H40.6598C40.2906 0.21092 40.0387 0.404264 39.9801 0.773374L39.9215 1.21865C39.3181 0.580031 38.4451 0 36.9862 0C34.5431 0 32.7385 1.92172 32.7385 4.69297C32.7385 7.4115 34.4259 9.42696 36.8339 9.42696C38.3455 9.42696 39.3356 8.78834 39.9391 8.12629L40.0387 8.67116C40.0973 9.0227 40.3317 9.21604 40.7008 9.21604H41.7319C42.1186 9.21604 42.353 8.98169 42.353 8.595V0.831963C42.3471 0.445276 42.1128 0.21092 41.7261 0.21092ZM37.5487 7.15957C36.1718 7.15957 35.2989 6.21043 35.2989 4.73399C35.2989 3.23997 36.2129 2.26739 37.5487 2.26739C38.9255 2.26739 39.7985 3.21653 39.7985 4.69297C39.8044 6.19285 38.8904 7.15957 37.5487 7.15957Z" fill="#0086FF"/>
<path d="M31.186 0.21092H30.1197C29.7506 0.21092 29.4987 0.404264 29.4401 0.773374L29.3815 1.21865C28.778 0.580031 27.9051 0 26.452 0C24.0089 0 22.2043 1.80454 22.2043 4.58166C22.2043 7.21816 23.8741 9.08129 26.2821 9.08129C27.7762 9.08129 28.6667 8.46024 29.2702 7.79819V8.24346C29.2702 9.79607 28.3972 10.7862 26.5516 10.7862C25.7783 10.7862 25.0752 10.6339 24.3604 10.3234C23.9913 10.1476 23.6984 10.2238 23.5285 10.5929L23.1008 11.4483C22.925 11.7998 22.9836 12.0869 23.3117 12.2802C24.3428 12.8603 25.6025 13.0946 26.8212 13.0946C29.8678 13.0946 31.8071 11.1729 31.8071 8.4954V0.831963C31.8071 0.445276 31.5727 0.21092 31.186 0.21092ZM27.0145 6.86662C25.6728 6.86662 24.7647 5.97607 24.7647 4.59337C24.7647 3.14037 25.7138 2.26739 27.0145 2.26739C28.3562 2.26739 29.2643 3.0642 29.2643 4.55822C29.2643 5.89991 28.3152 6.86662 27.0145 6.86662Z" fill="#0086FF"/>
<path d="M20.6516 0.21092H19.5853C19.2162 0.21092 18.9642 0.404264 18.9057 0.773374L18.8471 1.21865C18.2436 0.580031 17.3706 0 15.9176 0C13.4745 0 11.6699 1.92172 11.6699 4.69297C11.6699 7.4115 13.3573 9.42696 15.7653 9.42696C17.2769 9.42696 18.267 8.78834 18.8705 8.12629L18.9701 8.67116C19.0287 9.0227 19.263 9.21604 19.6322 9.21604H20.6633C21.05 9.21604 21.2844 8.98169 21.2844 8.595V0.831963C21.2726 0.445276 21.0383 0.21092 20.6516 0.21092ZM16.4801 7.15957C15.1032 7.15957 14.2303 6.21043 14.2303 4.73399C14.2303 3.23997 15.1442 2.26739 16.4801 2.26739C17.8569 2.26739 18.7299 3.21653 18.7299 4.69297C18.7299 6.19285 17.8159 7.15957 16.4801 7.15957Z" fill="#0086FF"/>
</g>
</g>
<defs>
<clipPath id="clip0_2_104">
<rect width="60" height="14" fill="white"/>
</clipPath>
<clipPath id="clip1_2_104">
<rect width="60" height="14" fill="white"/>
</clipPath>
</defs>
</svg>
