<svg width="261" height="224" viewBox="0 0 261 224" fill="none" xmlns="http://www.w3.org/2000/svg">
<path d="M12.656 196.296V188.344H19.992C21.4107 188.344 22.624 188.064 23.632 187.504C24.6773 186.944 25.48 186.16 26.04 185.152C26.6 184.107 26.88 182.912 26.88 181.568C26.88 180.149 26.6 178.936 26.04 177.928C25.48 176.883 24.6773 176.099 23.632 175.576C22.624 175.016 21.4107 174.736 19.992 174.736H12.656V166.784H19.544C23.016 166.784 25.984 167.363 28.448 168.52C30.9493 169.677 32.8533 171.32 34.16 173.448C35.504 175.576 36.176 178.133 36.176 181.12V182.016C36.176 184.928 35.504 187.467 34.16 189.632C32.8533 191.76 30.9493 193.403 28.448 194.56C25.984 195.717 23.016 196.296 19.544 196.296H12.656ZM4.592 208V166.784H13.776V208H4.592ZM42.273 208V177.312H49.385V190.472H49.217C49.217 186.141 50.1317 182.8 51.961 180.448C53.8277 178.096 56.5157 176.92 60.025 176.92H61.201V184.648H58.961C56.497 184.648 54.593 185.32 53.249 186.664C51.905 187.971 51.233 189.875 51.233 192.376V208H42.273ZM80.2952 209.064C77.6819 209.064 75.3672 208.616 73.3512 207.72C71.3726 206.824 69.7112 205.629 68.3672 204.136C67.0606 202.605 66.0526 200.907 65.3432 199.04C64.6712 197.136 64.3352 195.195 64.3352 193.216V192.096C64.3352 190.043 64.6712 188.083 65.3432 186.216C66.0526 184.312 67.0606 182.613 68.3672 181.12C69.6739 179.627 71.2979 178.451 73.2392 177.592C75.2179 176.696 77.4579 176.248 79.9592 176.248C83.2446 176.248 86.0072 176.995 88.2473 178.488C90.5246 179.944 92.2606 181.867 93.4552 184.256C94.6499 186.608 95.2473 189.184 95.2473 191.984V195.008H68.0872V189.912H89.8152L86.9033 192.264C86.9033 190.435 86.6419 188.867 86.1193 187.56C85.5966 186.253 84.8126 185.264 83.7672 184.592C82.7593 183.883 81.4899 183.528 79.9592 183.528C78.3913 183.528 77.0659 183.883 75.9832 184.592C74.9006 185.301 74.0792 186.347 73.5192 187.728C72.9592 189.072 72.6792 190.733 72.6792 192.712C72.6792 194.541 72.9406 196.147 73.4632 197.528C73.9859 198.872 74.8072 199.917 75.9272 200.664C77.0472 201.411 78.5032 201.784 80.2952 201.784C81.9379 201.784 83.2819 201.467 84.3273 200.832C85.3726 200.197 86.0819 199.413 86.4552 198.48H94.6873C94.2392 200.533 93.3619 202.363 92.0553 203.968C90.7486 205.573 89.1059 206.824 87.1272 207.72C85.1486 208.616 82.8712 209.064 80.2952 209.064ZM101.745 208V177.312H108.857V190.528H108.353C108.353 187.392 108.745 184.779 109.529 182.688C110.313 180.597 111.489 179.029 113.057 177.984C114.625 176.901 116.547 176.36 118.825 176.36H119.217C121.531 176.36 123.454 176.901 124.985 177.984C126.553 179.029 127.729 180.597 128.513 182.688C129.334 184.779 129.745 187.392 129.745 190.528H127.561C127.561 187.392 127.953 184.779 128.737 182.688C129.558 180.597 130.753 179.029 132.321 177.984C133.889 176.901 135.811 176.36 138.089 176.36H138.481C140.795 176.36 142.737 176.901 144.305 177.984C145.91 179.029 147.123 180.597 147.945 182.688C148.766 184.779 149.177 187.392 149.177 190.528V208H140.217V190.024C140.217 188.344 139.769 186.981 138.873 185.936C138.014 184.891 136.782 184.368 135.177 184.368C133.571 184.368 132.302 184.909 131.369 185.992C130.435 187.037 129.969 188.437 129.969 190.192V208H120.953V190.024C120.953 188.344 120.505 186.981 119.609 185.936C118.75 184.891 117.537 184.368 115.969 184.368C114.326 184.368 113.038 184.909 112.105 185.992C111.171 187.037 110.705 188.437 110.705 190.192V208H101.745ZM158.831 208V177.312H167.791V208H158.831ZM154.743 183.92V177.312H167.791V183.92H154.743ZM162.303 174.288C160.623 174.288 159.372 173.859 158.551 173C157.767 172.104 157.375 170.984 157.375 169.64C157.375 168.259 157.767 167.139 158.551 166.28C159.372 165.384 160.623 164.936 162.303 164.936C163.983 164.936 165.215 165.384 165.999 166.28C166.82 167.139 167.231 168.259 167.231 169.64C167.231 170.984 166.82 172.104 165.999 173C165.215 173.859 163.983 174.288 162.303 174.288ZM186.998 208.952C183.451 208.952 180.726 207.813 178.822 205.536C176.918 203.221 175.966 199.749 175.966 195.12V177.312H184.926V195.568C184.926 197.211 185.393 198.517 186.326 199.488C187.259 200.459 188.51 200.944 190.078 200.944C191.683 200.944 192.99 200.44 193.998 199.432C195.006 198.424 195.51 197.061 195.51 195.344V177.312H204.47V208H197.358V195.064H197.974C197.974 198.163 197.563 200.757 196.742 202.848C195.958 204.901 194.782 206.432 193.214 207.44C191.646 208.448 189.705 208.952 187.39 208.952H186.998ZM213.292 208V177.312H220.404V190.528H219.9C219.9 187.392 220.292 184.779 221.076 182.688C221.86 180.597 223.036 179.029 224.604 177.984C226.172 176.901 228.094 176.36 230.372 176.36H230.764C233.078 176.36 235.001 176.901 236.532 177.984C238.1 179.029 239.276 180.597 240.06 182.688C240.881 184.779 241.292 187.392 241.292 190.528H239.108C239.108 187.392 239.5 184.779 240.284 182.688C241.105 180.597 242.3 179.029 243.868 177.984C245.436 176.901 247.358 176.36 249.636 176.36H250.028C252.342 176.36 254.284 176.901 255.852 177.984C257.457 179.029 258.67 180.597 259.492 182.688C260.313 184.779 260.724 187.392 260.724 190.528V208H251.764V190.024C251.764 188.344 251.316 186.981 250.42 185.936C249.561 184.891 248.329 184.368 246.724 184.368C245.118 184.368 243.849 184.909 242.916 185.992C241.982 187.037 241.516 188.437 241.516 190.192V208H232.5V190.024C232.5 188.344 232.052 186.981 231.156 185.936C230.297 184.891 229.084 184.368 227.516 184.368C225.873 184.368 224.585 184.909 223.652 185.992C222.718 187.037 222.252 188.437 222.252 190.192V208H213.292Z" fill="#313673"/>
<path fill-rule="evenodd" clip-rule="evenodd" d="M126.681 0C187.834 0 237.362 32.5532 237.362 72.3146V76.5001C237.362 118.819 194.345 153 126.681 153C59.2492 153 16 118.819 16 76.5001V72.3146C16 32.5532 65.5274 0 126.681 0Z" fill="#2D3277"/>
<path d="M233.481 72.2818C233.481 109.754 185.842 140.244 127.281 140.244C68.72 140.244 21.0813 109.754 21.0813 72.2818C21.0813 34.8092 68.72 4.31912 127.281 4.31912C185.842 4.31912 233.481 34.8092 233.481 72.2818Z" fill="#FFE600"/>
<path d="M91.8025 50.9227C91.8025 50.9227 90.6397 52.0851 91.3372 53.0152C92.9649 55.1079 98.0806 56.2706 103.429 55.108C106.451 54.4104 110.637 51.1551 114.357 48.1323C118.543 44.877 122.728 41.3891 126.913 40.2264C131.331 38.8313 134.122 39.5289 135.982 39.994C138.075 40.6916 140.4 42.0866 144.353 44.8769C151.561 50.2249 180.859 75.8026 185.974 80.2206C189.927 78.3604 208.064 70.6871 232.711 65.1066C230.619 52.0853 222.713 39.9941 210.622 30.2281C193.88 37.2038 173.185 40.9242 152.956 31.1583C152.956 31.1583 142.028 26.0425 131.099 26.2751C115.055 26.7401 108.312 33.4834 100.871 40.9241L91.8025 50.9227Z" fill="white"/>
<path d="M184.812 83.0106C184.579 82.778 150.398 53.015 142.725 47.202C138.307 43.9466 135.749 43.0165 133.191 42.5515C131.796 42.319 129.936 42.5517 128.541 43.0167C125.053 43.9468 120.17 47.202 115.985 50.4573C111.567 53.9452 107.614 57.2007 103.894 57.8982C99.0106 59.0609 93.1977 57.6657 90.6399 55.8055C89.4773 55.1079 88.7797 54.1779 88.3147 53.2478C87.3846 50.9226 89.2448 49.0623 89.4773 48.8298L98.7782 38.5987L102.034 35.3433C99.0108 35.8084 96.2204 36.5061 93.4301 37.2036C89.9422 38.1337 86.6871 39.0637 83.4318 39.0637C82.0366 39.0637 74.5958 37.9012 73.2007 37.4361C64.5973 35.1109 57.1564 32.7858 45.9953 27.6702C32.7415 37.6687 23.6732 49.9925 21.1155 63.7113C22.9757 64.1764 26.2309 65.1063 27.3935 65.3389C57.6215 72.082 66.9225 79.0577 68.7827 80.4529C70.6429 78.3602 73.2005 77.1975 76.2233 77.1975C79.4787 77.1975 82.5015 78.8253 84.3616 81.383C85.9893 79.9879 88.5473 78.8253 91.5701 78.8253C92.9652 78.8253 94.3601 79.0577 95.9878 79.5227C99.4756 80.6853 101.104 83.0106 102.034 85.1033C103.196 84.6383 104.591 84.1732 106.219 84.1732C107.847 84.1732 109.474 84.6382 111.335 85.3358C116.915 87.661 117.845 93.2418 117.38 97.4272H118.543C125.286 97.4272 130.634 102.775 130.634 109.518C130.634 111.611 130.169 113.471 129.239 115.099C131.099 116.029 135.517 118.354 139.702 117.889C142.958 117.424 144.12 116.494 144.585 115.796C144.818 115.331 145.283 114.866 144.818 114.401L136.214 104.868C136.214 104.868 134.819 103.473 135.284 103.007C135.749 102.542 136.679 103.24 137.377 103.705C141.795 107.426 146.91 112.774 146.91 112.774C146.91 112.774 147.375 113.471 149.236 113.936C150.863 114.169 153.886 113.936 155.979 112.308C156.444 111.843 157.141 111.378 157.374 110.913C159.467 108.123 157.141 105.333 157.141 105.333L147.143 94.1718C147.143 94.1718 145.748 92.7765 146.213 92.3115C146.678 91.8464 147.608 92.5441 148.305 93.0092C151.561 95.5669 155.979 100.217 160.164 104.403C161.094 105.1 164.815 107.425 169.698 104.17C172.721 102.077 173.418 99.7523 173.186 97.8921C172.953 95.5669 171.093 93.7066 171.093 93.7066L157.606 79.9879C157.606 79.9879 156.211 78.8252 156.677 78.1276C157.142 77.6626 158.071 78.3603 158.769 78.8253C163.187 82.5457 174.813 93.2416 174.813 93.2416C175.046 93.2416 178.999 96.2645 184.114 93.0092C185.974 91.8466 187.137 90.219 187.137 88.1262C187.37 85.1034 184.812 83.0106 184.812 83.0106V83.0106Z" fill="white"/>
<path d="M119.008 100.45C116.915 100.45 114.59 101.612 114.357 101.612C114.125 101.612 114.357 100.682 114.59 100.217C114.822 99.7522 117.613 91.3814 110.869 88.3586C105.754 86.0334 102.499 88.5911 101.568 89.7537C101.336 89.9862 101.104 89.9862 101.104 89.7537C101.104 88.3586 100.406 84.1732 95.7554 82.778C89.2447 80.6853 85.2918 85.3359 84.1292 86.9635C83.6642 83.2432 80.6415 80.4528 76.6886 80.4528C72.5032 80.4528 69.2477 83.708 69.2477 87.8934C69.2477 92.0788 72.5032 95.3343 76.6886 95.3343C78.7813 95.3343 80.4088 94.6367 81.804 93.2416V93.474C81.5715 95.3342 80.8738 102.077 87.8495 104.635C90.6398 105.798 92.9653 104.868 95.058 103.473C95.7555 103.008 95.7554 103.24 95.7554 103.705C95.5228 105.333 95.7555 109.053 101.104 111.146C105.056 112.773 107.381 111.146 108.777 109.751C109.474 109.053 109.707 109.286 109.707 110.216C109.939 115.099 114.125 119.052 119.008 119.052C124.123 119.052 128.309 114.866 128.309 109.751C128.309 104.635 124.123 100.45 119.008 100.45V100.45Z" fill="white"/>
<path d="M186.219 79.414C175.747 70.335 151.546 49.1507 144.797 44.262C141.074 41.4684 138.514 39.8389 136.187 39.3733C135.256 39.1405 133.86 38.6748 131.998 38.6748C130.369 38.6748 128.508 38.9077 126.646 39.6061C122.457 41.0028 118.268 44.262 114.08 47.5212L113.847 47.7539C110.124 50.7802 106.168 53.8066 103.142 54.505C101.746 54.7378 100.582 54.9705 99.1861 54.9705C95.9282 54.9705 92.9031 54.0393 91.7396 52.6426C91.5069 52.4098 91.7395 51.9442 92.2049 51.4786L101.513 41.4685C108.727 34.2519 115.476 27.5006 131.3 27.0351H131.998C141.772 27.0351 151.546 31.4581 152.709 31.9237C162.018 36.3468 171.326 38.6748 180.867 38.6748C190.873 38.6748 201.113 36.1142 211.817 31.2255C210.654 30.2943 209.258 29.1302 208.094 28.199C198.553 32.3894 189.71 34.2517 180.867 34.2517C172.024 34.2517 163.181 32.1566 154.571 27.9663C154.106 27.7335 143.401 22.6119 131.998 22.6119H131.067C117.803 22.8447 110.356 27.5006 105.469 31.691C100.583 31.691 96.3938 33.0877 92.6705 34.0189C89.4125 34.9501 86.3873 35.6487 83.5948 35.6487H80.1041C76.8462 35.6487 60.5565 31.6911 47.7575 26.5696C46.3612 27.5008 45.1978 28.4318 43.8016 29.363C57.2987 34.9501 73.821 39.1405 78.9406 39.6061C80.3368 39.6061 81.9658 39.8388 83.5948 39.8388C87.0854 39.8388 90.3434 38.9078 93.834 37.9766C95.9284 37.511 98.0227 36.8125 100.117 36.3469L98.2553 38.2094L88.9469 48.4524C88.2488 49.1508 86.6199 51.2458 87.5507 53.5738C88.0161 54.505 88.9469 55.436 90.1104 56.3672C92.4375 57.764 96.3937 58.9282 100.117 58.9282C101.513 58.9282 102.909 58.6952 104.073 58.4624C108.029 57.5313 112.218 54.2723 116.407 50.7804C119.897 47.9868 124.784 44.4947 128.507 43.3307C129.671 43.0979 130.835 42.8653 131.998 42.8653H132.929C135.489 43.0981 137.816 44.0293 142.237 47.2884C149.917 53.1083 184.125 82.9059 184.358 83.1387C184.358 83.1387 186.452 85.0012 186.452 88.2604C186.452 89.8899 185.289 91.5196 183.66 92.6835C182.263 93.6147 180.634 94.0803 179.238 94.0803C176.911 94.0803 175.282 92.9163 175.282 92.9163C175.282 92.9163 163.414 82.2075 159.225 78.4828C158.527 77.7844 157.829 77.3188 157.131 77.3188C156.665 77.3188 156.433 77.5518 156.2 77.7846C155.502 78.7158 156.2 79.8796 157.131 80.578L170.861 94.313C170.861 94.313 172.489 95.9425 172.722 98.0377C172.722 100.366 171.792 102.228 169.464 103.625C167.835 104.789 166.206 105.254 164.577 105.254C162.483 105.254 161.087 104.323 160.621 104.09L158.527 102.228C155.036 98.7362 151.313 95.0114 148.521 92.9163C147.823 92.4507 147.124 91.7523 146.426 91.7523C146.193 91.7523 145.728 91.7522 145.495 92.2178C145.263 92.4506 145.03 93.149 145.728 94.313C145.961 94.7786 146.426 95.0115 146.426 95.0115L156.433 106.186C156.433 106.186 158.527 108.746 156.665 110.841L156.2 111.307L155.269 112.238C153.64 113.635 151.313 113.868 150.382 113.868H148.986C148.055 113.635 147.357 113.402 146.892 112.937C146.426 112.238 141.307 107.349 137.118 103.858C136.652 103.392 135.954 102.926 135.256 102.926C135.023 102.926 134.558 103.159 134.325 103.392C133.627 104.323 134.791 105.72 135.256 106.186L143.866 115.497C143.866 115.497 143.866 115.73 143.634 116.196C143.401 116.661 142.237 117.592 139.212 118.058H138.049C134.791 118.058 131.533 116.429 129.671 115.497C130.369 113.868 130.835 112.006 130.835 110.143C130.835 103.159 125.25 97.5722 118.268 97.5722H117.803C118.036 94.3131 117.57 88.2604 111.287 85.6997C109.426 85.0013 107.796 84.5357 105.935 84.5357C104.539 84.5357 103.375 84.7683 101.979 85.2339C100.583 82.6732 98.488 80.811 95.6955 79.8798C94.0665 79.4142 92.6703 79.1813 91.0413 79.1813C88.4815 79.1813 86.1544 79.8797 84.0601 81.5092C83.0491 80.264 81.7715 79.2618 80.3214 78.5769C78.8714 77.8919 77.2861 77.5417 75.6826 77.5518C72.8901 77.5518 70.0977 78.7156 68.236 80.578C65.6762 78.4829 55.2041 71.9646 27.0463 65.4463C25.6501 65.2135 22.625 64.2825 20.7633 63.5841C20.5306 64.9809 20.2978 66.6105 20.0651 68.24C20.0651 68.24 25.1848 69.4039 26.3484 69.6367C54.9716 75.9222 64.5126 82.6732 66.1416 83.8372C65.6762 85.234 65.4433 86.6309 65.4433 88.0276C65.4433 94.0803 70.3302 98.7362 76.1479 98.7362C76.846 98.7362 77.5442 98.7362 78.2423 98.5034C79.1732 102.927 81.9657 106.186 86.3871 107.815C87.7834 108.281 88.9469 108.513 90.1104 108.513C90.8086 108.513 91.7396 108.514 92.6705 108.281C93.3686 110.376 95.23 112.937 99.4188 114.566C100.815 115.264 102.211 115.497 103.608 115.497C104.771 115.497 105.935 115.265 106.866 114.799C108.727 119.455 113.382 122.714 118.501 122.714C121.992 122.714 125.25 121.317 127.577 118.757C129.671 119.92 133.86 122.016 138.281 122.016H139.91C144.332 121.55 146.193 119.688 147.124 118.524C147.357 118.291 147.357 118.058 147.59 117.825C148.521 118.058 149.684 118.291 151.08 118.291C153.407 118.291 155.735 117.592 158.062 115.73C160.389 114.1 162.018 111.773 162.018 109.677C162.716 109.91 163.647 109.91 164.345 109.91C166.672 109.91 169.232 109.212 171.559 107.582C175.98 104.789 176.678 100.831 176.678 98.5034C177.377 98.7362 178.307 98.7362 179.005 98.7362C181.333 98.7362 183.66 98.0377 185.754 96.641C188.547 94.7786 190.176 92.218 190.408 89.1916C190.641 87.0965 189.943 85.0011 189.012 83.1387C196.458 79.8796 213.214 73.8269 233.227 69.171C233.227 67.5414 232.994 66.1446 232.529 64.5151C208.56 69.6366 190.641 77.3189 186.219 79.414V79.414ZM118.966 118.291C114.312 118.291 110.589 114.566 110.356 109.91C110.356 109.445 110.356 108.513 109.425 108.513C108.96 108.513 108.727 108.746 108.262 108.979C107.331 109.91 105.935 110.841 104.073 110.841C103.142 110.841 102.211 110.609 101.281 110.143C96.3937 108.048 96.161 104.789 96.3938 103.392C96.3938 102.926 96.3938 102.694 96.1611 102.461L95.9282 102.228H95.6955C95.4628 102.228 95.23 102.228 94.7646 102.694C93.3684 103.625 91.9723 104.09 90.576 104.09C89.8779 104.09 88.9471 103.858 88.2489 103.625C81.7331 101.064 82.1984 95.0114 82.6639 93.149C82.6639 92.6834 82.6639 92.4506 82.4312 92.2178L81.9656 91.7523L81.5003 92.2178C80.1041 93.3818 78.4751 94.0803 76.8461 94.0803C73.1228 94.0803 70.0975 91.0539 70.0975 87.3291C70.0975 83.6044 73.1228 80.578 76.8461 80.578C80.1041 80.578 83.1293 83.1388 83.5948 86.3979L83.8274 88.2604L84.7583 86.6306C84.7583 86.3978 87.5509 82.2077 92.6705 82.4405C93.6013 82.4405 94.532 82.6732 95.6955 82.906C99.6516 84.0699 100.35 87.7948 100.35 89.1916C100.35 90.1228 101.048 90.1226 101.048 90.1226C101.281 90.1226 101.746 89.8899 101.746 89.6571C102.444 88.9587 104.073 87.5619 106.633 87.5619C107.797 87.5619 108.96 87.7947 110.356 88.4931C116.639 91.2867 113.847 99.2016 113.847 99.4344C113.382 100.831 113.149 101.297 113.847 101.762H114.312C114.545 101.762 115.01 101.762 115.476 101.53C116.407 101.297 117.57 100.831 118.734 100.831C123.388 100.831 127.344 104.789 127.344 109.445C127.577 114.566 123.621 118.291 118.966 118.291V118.291Z" fill="#2D3277"/>
</svg>
