<svg width="253" height="224" viewBox="0 0 253 224" fill="none" xmlns="http://www.w3.org/2000/svg">
<path d="M23.352 209.064C19.656 209.064 16.4827 208.429 13.832 207.16C11.1813 205.853 9.016 204.155 7.336 202.064C5.656 199.936 4.40533 197.659 3.584 195.232C2.8 192.768 2.408 190.379 2.408 188.064V186.832C2.408 184.293 2.81867 181.792 3.64 179.328C4.46133 176.827 5.712 174.568 7.392 172.552C9.10933 170.536 11.256 168.931 13.832 167.736C16.4453 166.504 19.5253 165.888 23.072 165.888C26.768 165.888 30.0347 166.579 32.872 167.96C35.7093 169.341 37.968 171.264 39.648 173.728C41.3653 176.155 42.3733 179.011 42.672 182.296H33.432C33.1707 180.653 32.5733 179.253 31.64 178.096C30.7067 176.939 29.4933 176.043 28 175.408C26.544 174.773 24.9013 174.456 23.072 174.456C21.2427 174.456 19.6187 174.773 18.2 175.408C16.7813 176.043 15.5867 176.939 14.616 178.096C13.6827 179.253 12.9547 180.635 12.432 182.24C11.9467 183.808 11.704 185.563 11.704 187.504C11.704 189.408 11.9467 191.163 12.432 192.768C12.9547 194.336 13.7013 195.717 14.672 196.912C15.68 198.069 16.912 198.965 18.368 199.6C19.824 200.197 21.4853 200.496 23.352 200.496C26.1893 200.496 28.5787 199.805 30.52 198.424C32.4987 197.043 33.6933 195.139 34.104 192.712H43.288C42.952 195.699 41.944 198.443 40.264 200.944C38.6213 203.408 36.3627 205.387 33.488 206.88C30.6507 208.336 27.272 209.064 23.352 209.064ZM49.8291 208V167.12H58.8451V208H49.8291ZM46.1891 173.728V167.12H58.8451V173.728H46.1891ZM86.1971 208V198.928H84.6851V189.072C84.6851 187.504 84.3118 186.328 83.5651 185.544C82.8185 184.76 81.6238 184.368 79.9811 184.368C79.1598 184.368 78.0771 184.387 76.7331 184.424C75.3891 184.461 74.0078 184.517 72.5891 184.592C71.1705 184.667 69.8825 184.741 68.7251 184.816V177.256C69.5838 177.181 70.5918 177.107 71.7491 177.032C72.9065 176.957 74.1011 176.901 75.3331 176.864C76.5651 176.827 77.7225 176.808 78.8051 176.808C81.9411 176.808 84.5731 177.256 86.7011 178.152C88.8665 179.048 90.5091 180.411 91.6291 182.24C92.7491 184.032 93.3091 186.347 93.3091 189.184V208H86.1971ZM76.3971 208.784C74.1945 208.784 72.2531 208.392 70.5731 207.608C68.9305 206.824 67.6425 205.704 66.7091 204.248C65.7758 202.755 65.3091 200.981 65.3091 198.928C65.3091 196.688 65.8878 194.859 67.0451 193.44C68.2025 191.984 69.8265 190.92 71.9171 190.248C74.0078 189.539 76.4158 189.184 79.1411 189.184H85.6931V194.168H79.0851C77.5171 194.168 76.3038 194.56 75.4451 195.344C74.6238 196.091 74.2131 197.117 74.2131 198.424C74.2131 199.656 74.6238 200.664 75.4451 201.448C76.3038 202.195 77.5171 202.568 79.0851 202.568C80.0931 202.568 80.9891 202.4 81.7731 202.064C82.5945 201.691 83.2665 201.075 83.7891 200.216C84.3118 199.357 84.6105 198.163 84.6851 196.632L86.8131 198.872C86.6265 201 86.1038 202.792 85.2451 204.248C84.4238 205.704 83.2665 206.824 81.7731 207.608C80.3171 208.392 78.5251 208.784 76.3971 208.784ZM75.3891 173.728L80.4291 162.024H89.6131L83.2291 173.728H75.3891ZM113.119 208.952C108.751 208.952 105.335 208.056 102.871 206.264C100.407 204.472 99.1005 201.952 98.9511 198.704H106.903C107.052 199.675 107.631 200.552 108.639 201.336C109.684 202.083 111.234 202.456 113.287 202.456C114.855 202.456 116.143 202.195 117.151 201.672C118.196 201.112 118.719 200.328 118.719 199.32C118.719 198.424 118.327 197.715 117.543 197.192C116.759 196.632 115.359 196.24 113.343 196.016L110.935 195.792C107.239 195.419 104.458 194.392 102.591 192.712C100.762 191.032 99.8471 188.885 99.8471 186.272C99.8471 184.107 100.388 182.296 101.471 180.84C102.554 179.384 104.047 178.283 105.951 177.536C107.892 176.789 110.095 176.416 112.559 176.416C116.516 176.416 119.708 177.293 122.135 179.048C124.562 180.765 125.831 183.267 125.943 186.552H117.991C117.842 185.544 117.319 184.704 116.423 184.032C115.527 183.323 114.202 182.968 112.447 182.968C111.066 182.968 109.964 183.229 109.143 183.752C108.322 184.275 107.911 184.984 107.911 185.88C107.911 186.739 108.266 187.392 108.975 187.84C109.684 188.288 110.842 188.605 112.447 188.792L114.855 189.016C118.626 189.427 121.556 190.472 123.647 192.152C125.738 193.832 126.783 196.091 126.783 198.928C126.783 200.981 126.223 202.773 125.103 204.304C123.983 205.797 122.396 206.955 120.343 207.776C118.29 208.56 115.882 208.952 113.119 208.952ZM144.796 208.952C140.428 208.952 137.012 208.056 134.548 206.264C132.084 204.472 130.778 201.952 130.628 198.704H138.58C138.73 199.675 139.308 200.552 140.316 201.336C141.362 202.083 142.911 202.456 144.964 202.456C146.532 202.456 147.82 202.195 148.828 201.672C149.874 201.112 150.396 200.328 150.396 199.32C150.396 198.424 150.004 197.715 149.22 197.192C148.436 196.632 147.036 196.24 145.02 196.016L142.612 195.792C138.916 195.419 136.135 194.392 134.268 192.712C132.439 191.032 131.524 188.885 131.524 186.272C131.524 184.107 132.066 182.296 133.148 180.84C134.231 179.384 135.724 178.283 137.628 177.536C139.57 176.789 141.772 176.416 144.236 176.416C148.194 176.416 151.386 177.293 153.812 179.048C156.239 180.765 157.508 183.267 157.62 186.552H149.668C149.519 185.544 148.996 184.704 148.1 184.032C147.204 183.323 145.879 182.968 144.124 182.968C142.743 182.968 141.642 183.229 140.82 183.752C139.999 184.275 139.588 184.984 139.588 185.88C139.588 186.739 139.943 187.392 140.652 187.84C141.362 188.288 142.519 188.605 144.124 188.792L146.532 189.016C150.303 189.427 153.234 190.472 155.324 192.152C157.415 193.832 158.46 196.091 158.46 198.928C158.46 200.981 157.9 202.773 156.78 204.304C155.66 205.797 154.074 206.955 152.02 207.776C149.967 208.56 147.559 208.952 144.796 208.952ZM166.282 208V177.312H175.242V208H166.282ZM162.194 183.92V177.312H175.242V183.92H162.194ZM169.754 174.288C168.074 174.288 166.823 173.859 166.002 173C165.218 172.104 164.826 170.984 164.826 169.64C164.826 168.259 165.218 167.139 166.002 166.28C166.823 165.384 168.074 164.936 169.754 164.936C171.434 164.936 172.666 165.384 173.45 166.28C174.271 167.139 174.682 168.259 174.682 169.64C174.682 170.984 174.271 172.104 173.45 173C172.666 173.859 171.434 174.288 169.754 174.288ZM197.865 209.064C195.214 209.064 192.899 208.635 190.921 207.776C188.979 206.88 187.355 205.685 186.049 204.192C184.742 202.699 183.771 201.019 183.137 199.152C182.502 197.248 182.185 195.288 182.185 193.272V192.208C182.185 190.117 182.521 188.12 183.193 186.216C183.865 184.275 184.854 182.557 186.161 181.064C187.467 179.571 189.091 178.395 191.033 177.536C193.011 176.677 195.27 176.248 197.809 176.248C200.571 176.248 203.017 176.789 205.145 177.872C207.273 178.917 208.971 180.392 210.241 182.296C211.51 184.2 212.219 186.384 212.369 188.848H203.577C203.427 187.467 202.867 186.309 201.897 185.376C200.963 184.405 199.601 183.92 197.809 183.92C196.315 183.92 195.065 184.293 194.057 185.04C193.086 185.787 192.358 186.813 191.873 188.12C191.387 189.427 191.145 190.976 191.145 192.768C191.145 194.411 191.369 195.904 191.817 197.248C192.265 198.555 192.974 199.581 193.945 200.328C194.953 201.037 196.259 201.392 197.865 201.392C199.059 201.392 200.067 201.187 200.889 200.776C201.747 200.328 202.419 199.731 202.905 198.984C203.427 198.2 203.745 197.304 203.857 196.296H212.593C212.481 198.835 211.771 201.075 210.465 203.016C209.158 204.92 207.422 206.413 205.257 207.496C203.091 208.541 200.627 209.064 197.865 209.064ZM233.835 209.064C231.147 209.064 228.758 208.653 226.667 207.832C224.576 206.973 222.803 205.816 221.347 204.36C219.928 202.904 218.846 201.243 218.099 199.376C217.352 197.472 216.979 195.475 216.979 193.384V192.096C216.979 189.968 217.352 187.952 218.099 186.048C218.883 184.107 220.003 182.408 221.459 180.952C222.952 179.496 224.744 178.357 226.835 177.536C228.926 176.677 231.259 176.248 233.835 176.248C236.486 176.248 238.838 176.677 240.891 177.536C242.982 178.357 244.755 179.496 246.211 180.952C247.667 182.408 248.787 184.107 249.571 186.048C250.355 187.952 250.747 189.968 250.747 192.096V193.384C250.747 195.475 250.374 197.472 249.627 199.376C248.88 201.243 247.779 202.904 246.323 204.36C244.904 205.816 243.15 206.973 241.059 207.832C238.968 208.653 236.56 209.064 233.835 209.064ZM233.835 201.504C235.59 201.504 237.046 201.131 238.203 200.384C239.36 199.637 240.238 198.592 240.835 197.248C241.47 195.904 241.787 194.411 241.787 192.768C241.787 191.013 241.47 189.483 240.835 188.176C240.2 186.832 239.286 185.768 238.091 184.984C236.934 184.2 235.515 183.808 233.835 183.808C232.192 183.808 230.774 184.2 229.579 184.984C228.384 185.768 227.47 186.832 226.835 188.176C226.238 189.483 225.939 191.013 225.939 192.768C225.939 194.411 226.238 195.904 226.835 197.248C227.432 198.592 228.328 199.637 229.523 200.384C230.718 201.131 232.155 201.504 233.835 201.504Z" fill="#313673"/>
<path fill-rule="evenodd" clip-rule="evenodd" d="M126.681 0C187.834 0 237.362 32.5532 237.362 72.3146V76.5001C237.362 118.819 194.345 153 126.681 153C59.2492 153 16 118.819 16 76.5001V72.3146C16 32.5532 65.5274 0 126.681 0Z" fill="#2D3277"/>
<path d="M233.481 72.2818C233.481 109.754 185.842 140.244 127.281 140.244C68.72 140.244 21.0813 109.754 21.0813 72.2818C21.0813 34.8092 68.72 4.31912 127.281 4.31912C185.842 4.31912 233.481 34.8092 233.481 72.2818Z" fill="#FFE600"/>
<path d="M91.8025 50.9227C91.8025 50.9227 90.6397 52.0851 91.3372 53.0152C92.9649 55.1079 98.0806 56.2706 103.429 55.108C106.451 54.4104 110.637 51.1551 114.357 48.1323C118.543 44.877 122.728 41.3891 126.913 40.2264C131.331 38.8313 134.122 39.5289 135.982 39.994C138.075 40.6916 140.4 42.0866 144.353 44.8769C151.561 50.2249 180.859 75.8026 185.974 80.2206C189.927 78.3604 208.064 70.6871 232.711 65.1066C230.619 52.0853 222.713 39.9941 210.622 30.2281C193.88 37.2038 173.185 40.9242 152.956 31.1583C152.956 31.1583 142.028 26.0425 131.099 26.2751C115.055 26.7401 108.312 33.4834 100.871 40.9241L91.8025 50.9227Z" fill="white"/>
<path d="M184.812 83.0106C184.579 82.778 150.398 53.015 142.725 47.202C138.307 43.9466 135.749 43.0165 133.191 42.5515C131.796 42.319 129.936 42.5517 128.541 43.0167C125.053 43.9468 120.17 47.202 115.985 50.4573C111.567 53.9452 107.614 57.2007 103.894 57.8982C99.0106 59.0609 93.1977 57.6657 90.6399 55.8055C89.4773 55.1079 88.7797 54.1779 88.3147 53.2478C87.3846 50.9226 89.2448 49.0623 89.4773 48.8298L98.7782 38.5987L102.034 35.3433C99.0108 35.8084 96.2204 36.5061 93.4301 37.2036C89.9422 38.1337 86.6871 39.0637 83.4318 39.0637C82.0366 39.0637 74.5958 37.9012 73.2007 37.4361C64.5973 35.1109 57.1564 32.7858 45.9953 27.6702C32.7415 37.6687 23.6732 49.9925 21.1155 63.7113C22.9757 64.1764 26.2309 65.1063 27.3935 65.3389C57.6215 72.082 66.9225 79.0577 68.7827 80.4529C70.6429 78.3602 73.2005 77.1975 76.2233 77.1975C79.4787 77.1975 82.5015 78.8253 84.3616 81.383C85.9893 79.9879 88.5473 78.8253 91.5701 78.8253C92.9652 78.8253 94.3601 79.0577 95.9878 79.5227C99.4756 80.6853 101.104 83.0106 102.034 85.1033C103.196 84.6383 104.591 84.1732 106.219 84.1732C107.847 84.1732 109.474 84.6382 111.335 85.3358C116.915 87.661 117.845 93.2418 117.38 97.4272H118.543C125.286 97.4272 130.634 102.775 130.634 109.518C130.634 111.611 130.169 113.471 129.239 115.099C131.099 116.029 135.517 118.354 139.702 117.889C142.958 117.424 144.12 116.494 144.585 115.796C144.818 115.331 145.283 114.866 144.818 114.401L136.214 104.868C136.214 104.868 134.819 103.473 135.284 103.007C135.749 102.542 136.679 103.24 137.377 103.705C141.795 107.426 146.91 112.774 146.91 112.774C146.91 112.774 147.375 113.471 149.236 113.936C150.863 114.169 153.886 113.936 155.979 112.308C156.444 111.843 157.141 111.378 157.374 110.913C159.467 108.123 157.141 105.333 157.141 105.333L147.143 94.1718C147.143 94.1718 145.748 92.7765 146.213 92.3115C146.678 91.8464 147.608 92.5441 148.305 93.0092C151.561 95.5669 155.979 100.217 160.164 104.403C161.094 105.1 164.815 107.425 169.698 104.17C172.721 102.077 173.418 99.7523 173.186 97.8921C172.953 95.5669 171.093 93.7066 171.093 93.7066L157.606 79.9879C157.606 79.9879 156.211 78.8252 156.677 78.1276C157.142 77.6626 158.071 78.3603 158.769 78.8253C163.187 82.5457 174.813 93.2416 174.813 93.2416C175.046 93.2416 178.999 96.2645 184.114 93.0092C185.974 91.8466 187.137 90.219 187.137 88.1262C187.37 85.1034 184.812 83.0106 184.812 83.0106V83.0106Z" fill="white"/>
<path d="M119.008 100.45C116.915 100.45 114.59 101.612 114.357 101.612C114.125 101.612 114.357 100.682 114.59 100.217C114.822 99.7522 117.613 91.3814 110.869 88.3586C105.754 86.0334 102.499 88.5911 101.568 89.7537C101.336 89.9862 101.104 89.9862 101.104 89.7537C101.104 88.3586 100.406 84.1732 95.7554 82.778C89.2447 80.6853 85.2918 85.3359 84.1292 86.9635C83.6642 83.2432 80.6415 80.4528 76.6886 80.4528C72.5032 80.4528 69.2477 83.708 69.2477 87.8934C69.2477 92.0788 72.5032 95.3343 76.6886 95.3343C78.7813 95.3343 80.4088 94.6367 81.804 93.2416V93.474C81.5715 95.3342 80.8738 102.077 87.8495 104.635C90.6398 105.798 92.9653 104.868 95.058 103.473C95.7555 103.008 95.7554 103.24 95.7554 103.705C95.5228 105.333 95.7555 109.053 101.104 111.146C105.056 112.773 107.381 111.146 108.777 109.751C109.474 109.053 109.707 109.286 109.707 110.216C109.939 115.099 114.125 119.052 119.008 119.052C124.123 119.052 128.309 114.866 128.309 109.751C128.309 104.635 124.123 100.45 119.008 100.45V100.45Z" fill="white"/>
<path d="M186.219 79.414C175.747 70.335 151.546 49.1507 144.797 44.262C141.074 41.4684 138.514 39.8389 136.187 39.3733C135.256 39.1405 133.86 38.6748 131.998 38.6748C130.369 38.6748 128.508 38.9077 126.646 39.6061C122.457 41.0028 118.268 44.262 114.08 47.5212L113.847 47.7539C110.124 50.7802 106.168 53.8066 103.142 54.505C101.746 54.7378 100.582 54.9705 99.1861 54.9705C95.9282 54.9705 92.9031 54.0393 91.7396 52.6426C91.5069 52.4098 91.7395 51.9442 92.2049 51.4786L101.513 41.4685C108.727 34.2519 115.476 27.5006 131.3 27.0351H131.998C141.772 27.0351 151.546 31.4581 152.709 31.9237C162.018 36.3468 171.326 38.6748 180.867 38.6748C190.873 38.6748 201.113 36.1142 211.817 31.2255C210.654 30.2943 209.258 29.1302 208.094 28.199C198.553 32.3894 189.71 34.2517 180.867 34.2517C172.024 34.2517 163.181 32.1566 154.571 27.9663C154.106 27.7335 143.401 22.6119 131.998 22.6119H131.067C117.803 22.8447 110.356 27.5006 105.469 31.691C100.583 31.691 96.3938 33.0877 92.6705 34.0189C89.4125 34.9501 86.3873 35.6487 83.5948 35.6487H80.1041C76.8462 35.6487 60.5565 31.6911 47.7575 26.5696C46.3612 27.5008 45.1978 28.4318 43.8016 29.363C57.2987 34.9501 73.821 39.1405 78.9406 39.6061C80.3368 39.6061 81.9658 39.8388 83.5948 39.8388C87.0854 39.8388 90.3434 38.9078 93.834 37.9766C95.9284 37.511 98.0227 36.8125 100.117 36.3469L98.2553 38.2094L88.9469 48.4524C88.2488 49.1508 86.6199 51.2458 87.5507 53.5738C88.0161 54.505 88.9469 55.436 90.1104 56.3672C92.4375 57.764 96.3937 58.9282 100.117 58.9282C101.513 58.9282 102.909 58.6952 104.073 58.4624C108.029 57.5313 112.218 54.2723 116.407 50.7804C119.897 47.9868 124.784 44.4947 128.507 43.3307C129.671 43.0979 130.835 42.8653 131.998 42.8653H132.929C135.489 43.0981 137.816 44.0293 142.237 47.2884C149.917 53.1083 184.125 82.9059 184.358 83.1387C184.358 83.1387 186.452 85.0012 186.452 88.2604C186.452 89.8899 185.289 91.5196 183.66 92.6835C182.263 93.6147 180.634 94.0803 179.238 94.0803C176.911 94.0803 175.282 92.9163 175.282 92.9163C175.282 92.9163 163.414 82.2075 159.225 78.4828C158.527 77.7844 157.829 77.3188 157.131 77.3188C156.665 77.3188 156.433 77.5518 156.2 77.7846C155.502 78.7158 156.2 79.8796 157.131 80.578L170.861 94.313C170.861 94.313 172.489 95.9425 172.722 98.0377C172.722 100.366 171.792 102.228 169.464 103.625C167.835 104.789 166.206 105.254 164.577 105.254C162.483 105.254 161.087 104.323 160.621 104.09L158.527 102.228C155.036 98.7362 151.313 95.0114 148.521 92.9163C147.823 92.4507 147.124 91.7523 146.426 91.7523C146.193 91.7523 145.728 91.7522 145.495 92.2178C145.263 92.4506 145.03 93.149 145.728 94.313C145.961 94.7786 146.426 95.0115 146.426 95.0115L156.433 106.186C156.433 106.186 158.527 108.746 156.665 110.841L156.2 111.307L155.269 112.238C153.64 113.635 151.313 113.868 150.382 113.868H148.986C148.055 113.635 147.357 113.402 146.892 112.937C146.426 112.238 141.307 107.349 137.118 103.858C136.652 103.392 135.954 102.926 135.256 102.926C135.023 102.926 134.558 103.159 134.325 103.392C133.627 104.323 134.791 105.72 135.256 106.186L143.866 115.497C143.866 115.497 143.866 115.73 143.634 116.196C143.401 116.661 142.237 117.592 139.212 118.058H138.049C134.791 118.058 131.533 116.429 129.671 115.497C130.369 113.868 130.835 112.006 130.835 110.143C130.835 103.159 125.25 97.5722 118.268 97.5722H117.803C118.036 94.3131 117.57 88.2604 111.287 85.6997C109.426 85.0013 107.796 84.5357 105.935 84.5357C104.539 84.5357 103.375 84.7683 101.979 85.2339C100.583 82.6732 98.488 80.811 95.6955 79.8798C94.0665 79.4142 92.6703 79.1813 91.0413 79.1813C88.4815 79.1813 86.1544 79.8797 84.0601 81.5092C83.0491 80.264 81.7715 79.2618 80.3214 78.5769C78.8714 77.8919 77.2861 77.5417 75.6826 77.5518C72.8901 77.5518 70.0977 78.7156 68.236 80.578C65.6762 78.4829 55.2041 71.9646 27.0463 65.4463C25.6501 65.2135 22.625 64.2825 20.7633 63.5841C20.5306 64.9809 20.2978 66.6105 20.0651 68.24C20.0651 68.24 25.1848 69.4039 26.3484 69.6367C54.9716 75.9222 64.5126 82.6732 66.1416 83.8372C65.6762 85.234 65.4433 86.6309 65.4433 88.0276C65.4433 94.0803 70.3302 98.7362 76.1479 98.7362C76.846 98.7362 77.5442 98.7362 78.2423 98.5034C79.1732 102.927 81.9657 106.186 86.3871 107.815C87.7834 108.281 88.9469 108.513 90.1104 108.513C90.8086 108.513 91.7396 108.514 92.6705 108.281C93.3686 110.376 95.23 112.937 99.4188 114.566C100.815 115.264 102.211 115.497 103.608 115.497C104.771 115.497 105.935 115.265 106.866 114.799C108.727 119.455 113.382 122.714 118.501 122.714C121.992 122.714 125.25 121.317 127.577 118.757C129.671 119.92 133.86 122.016 138.281 122.016H139.91C144.332 121.55 146.193 119.688 147.124 118.524C147.357 118.291 147.357 118.058 147.59 117.825C148.521 118.058 149.684 118.291 151.08 118.291C153.407 118.291 155.735 117.592 158.062 115.73C160.389 114.1 162.018 111.773 162.018 109.677C162.716 109.91 163.647 109.91 164.345 109.91C166.672 109.91 169.232 109.212 171.559 107.582C175.98 104.789 176.678 100.831 176.678 98.5034C177.377 98.7362 178.307 98.7362 179.005 98.7362C181.333 98.7362 183.66 98.0377 185.754 96.641C188.547 94.7786 190.176 92.218 190.408 89.1916C190.641 87.0965 189.943 85.0011 189.012 83.1387C196.458 79.8796 213.214 73.8269 233.227 69.171C233.227 67.5414 232.994 66.1446 232.529 64.5151C208.56 69.6366 190.641 77.3189 186.219 79.414V79.414ZM118.966 118.291C114.312 118.291 110.589 114.566 110.356 109.91C110.356 109.445 110.356 108.513 109.425 108.513C108.96 108.513 108.727 108.746 108.262 108.979C107.331 109.91 105.935 110.841 104.073 110.841C103.142 110.841 102.211 110.609 101.281 110.143C96.3937 108.048 96.161 104.789 96.3938 103.392C96.3938 102.926 96.3938 102.694 96.1611 102.461L95.9282 102.228H95.6955C95.4628 102.228 95.23 102.228 94.7646 102.694C93.3684 103.625 91.9723 104.09 90.576 104.09C89.8779 104.09 88.9471 103.858 88.2489 103.625C81.7331 101.064 82.1984 95.0114 82.6639 93.149C82.6639 92.6834 82.6639 92.4506 82.4312 92.2178L81.9656 91.7523L81.5003 92.2178C80.1041 93.3818 78.4751 94.0803 76.8461 94.0803C73.1228 94.0803 70.0975 91.0539 70.0975 87.3291C70.0975 83.6044 73.1228 80.578 76.8461 80.578C80.1041 80.578 83.1293 83.1388 83.5948 86.3979L83.8274 88.2604L84.7583 86.6306C84.7583 86.3978 87.5509 82.2077 92.6705 82.4405C93.6013 82.4405 94.532 82.6732 95.6955 82.906C99.6516 84.0699 100.35 87.7948 100.35 89.1916C100.35 90.1228 101.048 90.1226 101.048 90.1226C101.281 90.1226 101.746 89.8899 101.746 89.6571C102.444 88.9587 104.073 87.5619 106.633 87.5619C107.797 87.5619 108.96 87.7947 110.356 88.4931C116.639 91.2867 113.847 99.2016 113.847 99.4344C113.382 100.831 113.149 101.297 113.847 101.762H114.312C114.545 101.762 115.01 101.762 115.476 101.53C116.407 101.297 117.57 100.831 118.734 100.831C123.388 100.831 127.344 104.789 127.344 109.445C127.577 114.566 123.621 118.291 118.966 118.291V118.291Z" fill="#2D3277"/>
</svg>
