<svg width="145" height="145" viewBox="0 0 145 208" fill="none" xmlns="http://www.w3.org/2000/svg">
<path fill-rule="evenodd" clip-rule="evenodd" d="M70.6039 0.0935983C64.6997 0.578774 59.0476 2.88751 54.1565 6.812C52.764 7.92924 50.1342 10.5626 49.0429 11.9323C44.8833 17.1534 42.162 23.1567 40.8832 29.9326C40.5405 31.7487 40.3231 33.4852 40.2443 35.0357L40.1805 36.2922H24.6358C7.48314 36.2922 8.49634 36.2539 7.61319 36.936C6.9697 37.433 6.59815 38.1736 6.53604 39.0833C6.50795 39.4946 7.47425 61.8255 8.68339 88.7076C11.0762 141.903 10.9121 138.994 11.6502 141.287C13.0229 145.55 16.2326 148.811 20.1892 149.961C21.9969 150.486 18.9069 150.456 72.3916 150.456C126.006 150.456 122.84 150.487 124.798 149.944C125.88 149.645 127.87 148.642 128.889 147.884C131.761 145.747 133.689 142.5 134.242 138.866C134.333 138.273 135.339 118.535 136.817 88.3789C139.223 39.2707 139.241 38.8611 139.06 38.2849C138.84 37.5842 138.26 36.9132 137.585 36.5794L137.108 36.3435L121.359 36.3163L105.609 36.2891L105.552 35.6496C105.521 35.2979 105.446 34.4562 105.386 33.7792C104.538 24.2598 100.275 15.076 93.8062 8.832C87.2788 2.53138 78.9787 -0.594572 70.6039 0.0935983ZM76.2543 9.04371C79.1888 9.60202 81.7615 10.6404 84.2419 12.2676C89.7371 15.8728 93.9346 22.1046 95.6912 29.2659C96.1954 31.3216 96.4456 32.9835 96.6447 35.5999L96.6974 36.2922H72.8828H49.0682L49.1338 35.0357C49.253 32.7529 49.7738 29.856 50.473 27.5859C52.1596 22.1118 55.0471 17.538 58.9382 14.1779C62.216 11.3473 65.8485 9.63648 70.0294 8.95406C71.2118 8.76112 75.06 8.81651 76.2543 9.04371ZM76.3513 55.2117C82.1452 55.9622 87.1771 57.6932 92.0676 60.6183C93.3088 61.3606 93.901 61.8704 94.0048 62.2858C94.0962 62.6513 93.8419 63.1927 92.8185 64.8118C92.4098 65.4584 91.9216 66.2413 91.7336 66.5516C91.0086 67.7485 90.7745 67.7568 88.9922 66.6495C84.0469 63.5769 78.986 62.0069 72.9535 61.6741C70.8619 61.5587 68.3707 61.9086 66.2622 62.6139C62.4496 63.8892 59.4062 66.5654 58.1271 69.7674C57.4214 71.534 57.1886 73.0289 57.3687 74.6359C57.9111 79.477 61.47 83.0562 68.663 85.995C69.4429 86.3137 71.1409 86.9331 72.4366 87.3717C76.8491 88.8653 79.9325 90.0954 82.8628 91.5311C91.3072 95.6685 95.7107 100.296 97.0137 106.402C97.3315 107.891 97.4043 110.849 97.169 112.713C96.3102 119.518 92.5041 124.963 86.4894 127.991C83.9561 129.267 81.1177 130.095 77.4484 130.627C75.7983 130.867 71.932 130.865 69.7518 130.624C63.5547 129.937 57.4418 127.95 53.135 125.223C50.7275 123.699 47.5737 121.348 47.4295 120.97C47.2819 120.584 47.4219 120.308 48.8515 118.169C50.4895 115.717 50.7824 115.377 51.2534 115.377C51.6567 115.377 51.8744 115.499 52.6521 116.16C54.2498 117.518 57.1386 119.368 59.3666 120.46C64.2026 122.831 69.6175 124.061 73.9604 123.776C79.4154 123.418 83.8444 121.702 86.7274 118.828C88.2908 117.27 89.2692 115.612 89.8306 113.569C90.0836 112.648 90.1086 112.398 90.1066 110.812C90.1041 108.903 89.9959 108.313 89.3496 106.693C88.0418 103.413 84.8622 100.405 80.257 98.089C78.4341 97.1723 77.0478 96.6178 74.2345 95.6798C70.318 94.3741 64.6041 92.137 61.8474 90.8301C59.1641 89.5579 56.0665 87.2313 54.2016 85.0872C51.1332 81.5596 49.7528 77.6926 49.9503 73.1775C50.1906 67.6814 52.9709 62.723 57.732 59.2995C60.9243 57.0041 64.9764 55.5291 69.3746 55.0616C70.5974 54.9315 74.904 55.0242 76.3513 55.2117ZM9.51372 162.78C5.31076 163.313 1.98523 165.959 1.02179 169.536C0.776505 170.447 0.775586 172.421 1.01995 173.314C1.40988 174.738 2.11763 175.929 3.22512 177.024C4.89886 178.679 6.82882 179.64 11.7911 181.289C15.8805 182.648 17.7207 183.889 18.6979 185.948C18.9938 186.571 19.0141 186.688 19.0094 187.743C19.0036 189.046 18.8229 189.641 18.1449 190.592C16.824 192.444 13.5679 193.622 10.6057 193.319C7.91894 193.045 5.54246 192.079 2.6703 190.095C1.81974 189.508 1.80043 189.519 0.538682 191.401C0.104513 192.049 -0.0393245 192.347 0.0088938 192.5C0.085614 192.742 1.02679 193.514 2.05623 194.179C5.42835 196.357 10.1082 197.429 13.8043 196.87C17.2875 196.343 19.7516 194.968 21.3035 192.684C21.7637 192.007 22.3772 190.651 22.5876 189.846C22.845 188.861 22.9054 186.705 22.7026 185.746C22.5259 184.911 22.0247 183.766 21.5007 183C20.6483 181.753 18.8783 180.369 16.7966 179.321C15.3671 178.601 14.1664 178.127 11.659 177.292C9.30512 176.507 7.47201 175.637 6.50682 174.845C5.7386 174.215 5.03984 173.241 4.81806 172.491C4.20399 170.415 5.44418 168.09 7.75713 166.981C8.84143 166.462 9.80467 166.254 11.1294 166.254C13.3932 166.254 15.6938 166.905 17.864 168.16C19.1238 168.888 19.1316 168.89 19.5641 168.431C20.1813 167.777 21.0064 166.47 21.0064 166.146C21.0064 165.754 20.413 165.303 18.9257 164.565C16.9653 163.591 14.8164 163.003 12.3594 162.769C11.0974 162.649 10.5299 162.651 9.51372 162.78ZM26.5813 162.825C26.4367 162.97 26.4208 164.652 26.4208 179.808C26.4208 191.207 26.4549 196.693 26.5265 196.828C26.6245 197.011 26.7558 197.026 28.3018 197.026C29.5405 197.026 29.9995 196.992 30.0807 196.894C30.1548 196.804 30.2011 194.797 30.2245 190.662C30.2559 185.109 30.2755 184.513 30.4439 183.999C31.1544 181.832 32.7479 180.252 34.8488 179.631C35.2552 179.511 35.806 179.449 36.4833 179.449C37.6662 179.449 38.3777 179.626 39.4385 180.184C40.8277 180.914 41.9165 182.208 42.4345 183.743L42.7114 184.563L42.7642 190.769L42.8171 196.975L44.5809 197.003L46.3447 197.031L46.4529 196.746C46.5266 196.553 46.5484 194.505 46.521 190.359L46.4807 184.255L46.2095 183.243C45.2346 179.603 42.4837 176.901 38.8098 175.975C38.0891 175.793 37.6234 175.749 36.4322 175.75C35.1372 175.752 34.8225 175.787 33.9294 176.033C32.7705 176.352 31.468 176.95 30.7725 177.483C30.5132 177.682 30.2785 177.845 30.2508 177.845C30.2232 177.845 30.2006 174.477 30.2006 170.36C30.2006 163.066 30.1956 162.873 30.003 162.77C29.892 162.71 29.1342 162.664 28.2736 162.664C27.0173 162.664 26.713 162.693 26.5813 162.825ZM58.9664 175.592C56.059 176.051 53.5507 177.529 51.8339 179.794C51.2094 180.617 50.403 182.261 50.1288 183.268C48.5827 188.95 51.9554 194.718 57.7344 196.275C58.6507 196.522 58.9289 196.55 60.4903 196.55C62.0517 196.55 62.3298 196.522 63.2462 196.275C67.6081 195.099 70.6765 191.548 71.1617 187.112C71.5117 183.91 70.3039 180.703 67.8912 178.427C66.4645 177.082 64.6931 176.15 62.767 175.733C61.8653 175.538 59.7962 175.461 58.9664 175.592ZM75.2776 175.591L75.0477 175.684V191.78C75.0477 206.364 75.0629 207.883 75.2093 207.939C75.4198 208.02 78.2512 208.02 78.4616 207.939C78.6067 207.883 78.6232 207.187 78.6232 201.118C78.6232 197.401 78.6577 194.36 78.6999 194.362C78.742 194.363 79.0523 194.575 79.3894 194.832C80.1711 195.428 81.8241 196.238 82.8114 196.509C88.3074 198.017 94.0926 195.008 95.8881 189.708C96.7847 187.061 96.6407 184.282 95.477 181.77C94.3519 179.342 92.1317 177.233 89.7082 176.292C87.212 175.322 84.1644 175.324 81.7416 176.298C80.7944 176.679 79.8891 177.203 79.2179 177.757C78.9549 177.975 78.7135 178.152 78.6816 178.152C78.6495 178.152 78.6232 177.597 78.6232 176.919C78.6232 175.689 78.6224 175.685 78.3612 175.585C78.0345 175.461 75.5896 175.465 75.2776 175.591ZM108.862 175.598C108.497 175.653 107.754 175.851 107.211 176.037C104.611 176.927 102.593 178.733 101.351 181.281C100.214 183.611 99.9696 185.726 100.53 188.383C101.272 191.908 103.923 194.865 107.418 196.066C108.702 196.508 110.061 196.655 112.233 196.589C113.669 196.545 114.092 196.492 115.093 196.23C116.499 195.862 117.697 195.32 118.873 194.52C120.272 193.568 120.351 193.351 119.681 192.298C118.464 190.388 118.369 190.314 117.791 190.827C115.919 192.49 113.172 193.328 110.573 193.029C109.232 192.875 107.895 192.428 107.011 191.838C105.679 190.949 104.541 189.439 104.121 188.006C104.032 187.7 103.958 187.435 103.958 187.417C103.958 187.399 107.538 187.384 111.913 187.384H119.867L120.149 187.162C120.608 186.799 120.691 186.445 120.599 185.23C120.391 182.48 119.317 180.213 117.314 178.297C115.983 177.024 114.602 176.261 112.769 175.784C111.837 175.541 109.851 175.447 108.862 175.598ZM133.361 175.589C132.316 175.755 131.505 176.006 130.552 176.458C129.341 177.031 128.809 177.4 127.827 178.35C126.831 179.313 126.271 180.09 125.672 181.338C123.941 184.94 124.355 189.238 126.738 192.422C128.021 194.136 129.923 195.474 132.018 196.138C134.215 196.834 137.769 196.786 140.173 196.028C141.949 195.469 144.122 194.14 144.412 193.438C144.525 193.164 144.502 193.081 144.151 192.492C143.434 191.286 142.879 190.564 142.671 190.564C142.562 190.564 142.187 190.795 141.838 191.077C139.977 192.583 137.329 193.321 134.854 193.025C133.049 192.809 131.786 192.278 130.549 191.217C129.619 190.419 128.597 188.764 128.42 187.769L128.351 187.384L136.254 187.384C143.907 187.383 144.168 187.377 144.484 187.183C144.986 186.876 145.086 186.4 144.937 185.025C144.738 183.185 144.223 181.668 143.32 180.263C141.446 177.347 138.495 175.646 135.116 175.535C134.47 175.514 133.68 175.538 133.361 175.589ZM111.875 179.295C112.156 179.354 112.819 179.611 113.348 179.865C114.643 180.488 115.675 181.499 116.307 182.769L116.742 183.64L110.538 183.667C107.126 183.681 104.317 183.675 104.295 183.654C104.212 183.57 104.683 182.505 105.043 181.961C106.508 179.746 109.141 178.718 111.875 179.295ZM136.393 179.345C138.131 179.768 139.893 181.196 140.715 182.845L141.136 183.691H134.859H128.581L128.788 183.164C129.36 181.707 130.497 180.467 131.863 179.808C133.321 179.106 134.795 178.955 136.393 179.345ZM62.318 179.38C63.565 179.701 64.4491 180.22 65.4551 181.225C66.8504 182.617 67.4895 184.134 67.4865 186.046C67.4847 187.233 67.2891 188.122 66.819 189.079C65.9328 190.882 64.2669 192.239 62.278 192.777C61.3846 193.019 59.6026 193.02 58.7025 192.779C56.2145 192.114 54.2894 190.186 53.6536 187.722C53.4485 186.927 53.4466 185.284 53.6499 184.418C54.2065 182.048 56.21 180.02 58.6224 179.385C59.6534 179.114 61.2723 179.112 62.318 179.38ZM86.652 179.288C89.258 179.652 91.3794 181.38 92.3391 183.92C92.644 184.727 92.6599 184.841 92.6627 186.256C92.6656 187.682 92.6525 187.778 92.3421 188.592C91.6647 190.368 90.5154 191.658 88.8901 192.466C87.5595 193.127 86.9029 193.267 85.4167 193.205C84.3741 193.161 84.0623 193.106 83.3311 192.834C81.6035 192.192 80.1973 190.95 79.4384 189.395C78.3844 187.235 78.4134 185.067 79.525 182.922C80.0083 181.99 81.2835 180.682 82.2148 180.165C83.6942 179.342 85.0788 179.069 86.652 179.288Z" fill="#FF5F00"/>
</svg>
